REM DIRINDEX 1\2,1\3,1\4,1\5
REM DIRNAME "folder01","folder02","folder03","folder04","folder05"
TITLE ""
FILE "P1Q_t_0149-0158.mp3" MP3
  TRACK 01 AUDIO
    TITLE "3:cjc173_1359"
    INDEX 01 00:00:00
  TRACK 02 AUDIO
    TITLE "0:"
    INDEX 01 00:01:31
  TRACK 03 AUDIO
    TITLE "4:cjc173_1360"
    INDEX 01 00:01:53
  TRACK 04 AUDIO
    TITLE "0:"
    INDEX 01 00:04:12
  TRACK 05 AUDIO
    TITLE "5:cjc173_1361"
    INDEX 01 00:04:32
  TRACK 06 AUDIO
    TITLE "0:"
    INDEX 01 00:08:14
  TRACK 07 AUDIO
    TITLE "3:cjc173_1362"
    INDEX 01 00:08:59
  TRACK 08 AUDIO
    TITLE "0:"
    INDEX 01 00:09:66
  TRACK 09 AUDIO
    TITLE "4:cjc173_1363"
    INDEX 01 00:10:11
  TRACK 10 AUDIO
    TITLE "0:"
    INDEX 01 00:11:22
  TRACK 11 AUDIO
    TITLE "5:cjc173_1364"
    INDEX 01 00:11:41
  TRACK 12 AUDIO
    TITLE "0:"
    INDEX 01 00:16:25
  TRACK 13 AUDIO
    TITLE "3:cjc173_1365"
    INDEX 01 00:16:74
  TRACK 14 AUDIO
    TITLE "0:"
    INDEX 01 00:18:08
  TRACK 15 AUDIO
    TITLE "4:cjc173_1366"
    INDEX 01 00:18:32
  TRACK 16 AUDIO
    TITLE "0:"
    INDEX 01 00:21:50
  TRACK 17 AUDIO
    TITLE "5:cjc173_1367"
    INDEX 01 00:21:69
  TRACK 18 AUDIO
    TITLE "0:"
    INDEX 01 00:27:29
  TRACK 19 AUDIO
    TITLE "3:cjc173_1368"
    INDEX 01 00:27:74
  TRACK 20 AUDIO
    TITLE "0:"
    INDEX 01 00:29:18
  TRACK 21 AUDIO
    TITLE "4:cjc173_1369"
    INDEX 01 00:29:39
  TRACK 22 AUDIO
    TITLE "0:"
    INDEX 01 00:30:49
  TRACK 23 AUDIO
    TITLE "5:cjc173_1370"
    INDEX 01 00:30:68
  TRACK 24 AUDIO
    TITLE "0:"
    INDEX 01 00:35:34
  TRACK 25 AUDIO
    TITLE "3:cjc173_1371"
    INDEX 01 00:36:04
  TRACK 26 AUDIO
    TITLE "0:"
    INDEX 01 00:37:29
  TRACK 27 AUDIO
    TITLE "4:cjc173_1372"
    INDEX 01 00:37:51
  TRACK 28 AUDIO
    TITLE "0:"
    INDEX 01 00:42:38
  TRACK 29 AUDIO
    TITLE "5:cjc173_1373"
    INDEX 01 00:42:58
  TRACK 30 AUDIO
    TITLE "0:"
    INDEX 01 00:47:53
  TRACK 31 AUDIO
    TITLE "3:cjc173_1374"
    INDEX 01 00:48:23
  TRACK 32 AUDIO
    TITLE "0:"
    INDEX 01 00:49:28
  TRACK 33 AUDIO
    TITLE "4:cjc173_1375"
    INDEX 01 00:49:52
  TRACK 34 AUDIO
    TITLE "0:"
    INDEX 01 00:51:57
  TRACK 35 AUDIO
    TITLE "5:cjc173_1376"
    INDEX 01 00:52:01
  TRACK 36 AUDIO
    TITLE "0:"
    INDEX 01 00:56:30
  TRACK 37 AUDIO
    TITLE "3:cjc173_1377"
    INDEX 01 00:57:00
  TRACK 38 AUDIO
    TITLE "0:"
    INDEX 01 00:58:21
  TRACK 39 AUDIO
    TITLE "4:cjc173_1378"
    INDEX 01 00:58:43
  TRACK 40 AUDIO
    TITLE "0:"
    INDEX 01 01:00:67
  TRACK 41 AUDIO
    TITLE "5:cjc173_1379"
    INDEX 01 01:01:12
  TRACK 42 AUDIO
    TITLE "0:"
    INDEX 01 01:05:55
  TRACK 43 AUDIO
    TITLE "3:cjc173_1380"
    INDEX 01 01:06:25
  TRACK 44 AUDIO
    TITLE "0:"
    INDEX 01 01:07:52
  TRACK 45 AUDIO
    TITLE "4:cjc173_1381"
    INDEX 01 01:07:73
  TRACK 46 AUDIO
    TITLE "0:"
    INDEX 01 01:09:33
  TRACK 47 AUDIO
    TITLE "5:cjc173_1382"
    INDEX 01 01:09:55
  TRACK 48 AUDIO
    TITLE "0:"
    INDEX 01 01:13:35
  TRACK 49 AUDIO
    TITLE "3:cjc173_1383"
    INDEX 01 01:14:07
  TRACK 50 AUDIO
    TITLE "0:"
    INDEX 01 01:15:30
  TRACK 51 AUDIO
    TITLE "4:cjc173_1384"
    INDEX 01 01:15:51
  TRACK 52 AUDIO
    TITLE "0:"
    INDEX 01 01:18:01
  TRACK 53 AUDIO
    TITLE "5:cjc173_1385"
    INDEX 01 01:18:20
  TRACK 54 AUDIO
    TITLE "0:"
    INDEX 01 01:24:13
  TRACK 55 AUDIO
    TITLE "3:cjc173_1386"
    INDEX 01 01:24:60
  TRACK 56 AUDIO
    TITLE "0:"
    INDEX 01 01:26:28
  TRACK 57 AUDIO
    TITLE "4:cjc173_1387"
    INDEX 01 01:26:49
  TRACK 58 AUDIO
    TITLE "0:"
    INDEX 01 01:29:06
  TRACK 59 AUDIO
    TITLE "5:cjc173_1388"
    INDEX 01 01:29:28
  TRACK 60 AUDIO
    TITLE "0:"
    INDEX 01 01:34:72
